<?xml version="1.0" encoding="UTF-8"?>
<!DOCTYPE svg PUBLIC "-//W3C//DTD SVG 1.1//EN" "http://www.w3.org/Graphics/SVG/1.1/DTD/svg11.dtd">
<!-- Creator: CorelDRAW -->
<svg xmlns="http://www.w3.org/2000/svg" xml:space="preserve" width="79.3748mm" height="124.354mm" version="1.1" style="shape-rendering:geometricPrecision; text-rendering:geometricPrecision; image-rendering:optimizeQuality; fill-rule:evenodd; clip-rule:evenodd"
viewBox="0 0 7937.48 12435.4"
 xmlns:xlink="http://www.w3.org/1999/xlink"
 xmlns:xodm="http://www.corel.com/coreldraw/odm/2003">
 <defs>
  <style type="text/css">
   <![CDATA[
    .fil0 {fill:url(#id0)}
   ]]>
  </style>
  <linearGradient id="id0" gradientUnits="userSpaceOnUse" x1="-2615.45" y1="2352.82" x2="6126.89" y2="13654.49">
   <stop offset="0" style="stop-opacity:1; stop-color:#42AD4E"/>
   <stop offset="0.458824" style="stop-opacity:1; stop-color:#21BCA6"/>
   <stop offset="1" style="stop-opacity:1; stop-color:#00CCFF"/>
  </linearGradient>
 </defs>
 <g id="Capa_x0020_1">
  <metadata id="CorelCorpID_0Corel-Layer"/>
  <path class="fil0" d="M3532.71 1953.1c-146.68,-269.87 -88.45,-614.49 155.95,-819.57 279.01,-234.11 694.97,-197.72 929.09,81.29 234.11,279 197.72,694.97 -81.29,929.09 -244.41,205.07 -593.9,202.57 -834.2,11.26l-3702.27 3106.58 0 -344.35 3532.72 -2964.3zm-791.36 7825.65c-146.68,-269.87 -88.45,-614.48 155.95,-819.55 279,-234.12 694.98,-197.73 929.09,81.28 234.12,279 197.72,694.97 -81.28,929.09 -244.41,205.07 -593.9,202.58 -834.2,11.26l-2910.92 2442.56 0 -344.37 2741.36 -2300.27zm325.51 -617.49c167.4,-140.46 416.99,-118.64 557.46,48.77 140.46,167.41 118.63,416.99 -48.78,557.46 -167.4,140.47 -416.99,118.64 -557.45,-48.77 -140.47,-167.4 -118.64,-416.98 48.77,-557.46zm2312.35 -3427.23c-146.68,-269.86 -88.45,-614.48 155.95,-819.56 279,-234.12 694.98,-197.72 929.09,81.28 234.11,279.01 197.72,694.97 -81.28,929.09 -244.41,205.08 -593.9,202.58 -834.2,11.26l-5548.78 4655.99 0 -344.35 5379.22 -4513.71zm325.51 -617.48c167.4,-140.48 416.99,-118.64 557.46,48.76 140.47,167.41 118.63,416.99 -48.78,557.47 -167.4,140.46 -416.99,118.63 -557.45,-48.78 -140.47,-167.41 -118.64,-416.99 48.77,-557.45zm993.42 -4130.66c-146.68,-269.88 -88.45,-614.49 155.95,-819.57 279,-234.12 694.98,-197.72 929.09,81.29 234.11,279 197.72,694.97 -81.28,929.08 -244.41,205.08 -593.9,202.58 -834.2,11.26l-6867.71 5762.71 0 -344.36 6698.15 -5620.41zm325.52 -617.5c167.39,-140.47 416.98,-118.63 557.45,48.77 140.47,167.41 118.63,416.99 -48.78,557.46 -167.4,140.47 -416.99,118.63 -557.45,-48.77 -140.47,-167.41 -118.63,-416.98 48.78,-557.46zm-3490.95 5101.85c-146.68,-269.86 -88.45,-614.48 155.95,-819.56 279.01,-234.11 694.97,-197.71 929.09,81.29 234.11,279 197.72,694.98 -81.29,929.09 -244.41,205.07 -593.9,202.57 -834.2,11.26l-3702.27 3106.58 0 -344.35 3532.72 -2964.31zm325.51 -617.48c167.4,-140.47 416.98,-118.64 557.45,48.77 140.48,167.4 118.63,416.99 -48.77,557.46 -167.41,140.46 -416.99,118.63 -557.45,-48.78 -140.48,-167.4 -118.63,-416.99 48.77,-557.45zm-0.01 -3517.15c167.41,-140.47 417,-118.64 557.46,48.77 140.48,167.4 118.63,416.99 -48.77,557.46 -167.41,140.46 -416.98,118.63 -557.45,-48.78 -140.47,-167.4 -118.63,-416.99 48.76,-557.45z"/>
 </g>
</svg>
