<?xml version="1.0" encoding="UTF-8"?>
<!DOCTYPE svg PUBLIC "-//W3C//DTD SVG 1.1//EN" "http://www.w3.org/Graphics/SVG/1.1/DTD/svg11.dtd">
<!-- Creator: CorelDRAW -->
<svg xmlns="http://www.w3.org/2000/svg" xml:space="preserve" width="105.833mm" height="13.229mm" version="1.1" style="shape-rendering:geometricPrecision; text-rendering:geometricPrecision; image-rendering:optimizeQuality; fill-rule:evenodd; clip-rule:evenodd"
viewBox="0 0 10583.32 1322.9"
 xmlns:xlink="http://www.w3.org/1999/xlink"
 xmlns:xodm="http://www.corel.com/coreldraw/odm/2003">
 <defs>
  <style type="text/css">
   <![CDATA[
    .fil0 {fill:#00CCFF;fill-rule:nonzero;fill-opacity:0.278431}
    .fil1 {fill:white;fill-rule:nonzero;fill-opacity:0.278431}
   ]]>
  </style>
 </defs>
 <g id="Capa_x0020_1">
  <metadata id="CorelCorpID_0Corel-Layer"/>
  <g id="_2475594520976">
   <path class="fil0" d="M786.14 301.49l-168.11 0 0 990.4 -273.95 0 0 -990.4 -344.08 0 0 -63.57c2.86,-105.62 62.19,-158.51 177.99,-158.7l786.14 0 0 63.57c-2.86,105.62 -62.19,158.52 -177.99,158.7zm3388.24 1011.47c-144.33,0 -257.77,-40.4 -340.33,-121.23 -82.56,-80.83 -123.83,-190.81 -123.83,-329.36 0,-143.18 42.72,-255.47 128.45,-336.3 85.73,-80.83 201.78,-121.23 347.55,-121.23 143.76,0 256.62,40.4 338.31,121.23 81.7,80.83 122.69,187.92 122.69,321 0,143.75 -42.15,257.48 -126.44,340.9 -84.29,83.43 -199.75,124.99 -346.4,124.99zm6.94 -703.47c-63.23,0 -112.29,21.66 -147.22,64.95 -34.94,43.6 -52.54,105.08 -52.54,184.46 0,166.27 67.26,249.41 201.48,249.41 127.88,0 191.97,-85.45 191.97,-256.05 0,-161.94 -64.66,-242.77 -193.69,-242.77zm-631.03 682.4l-266.43 0 0 -481.19c0,-134.23 -47.93,-201.21 -143.76,-201.21 -46.19,0 -84.29,17.61 -114.02,53.12 -30.02,35.51 -45.03,80.83 -45.03,135.38l0 493.9 -267.02 0 0 -865.98 267.02 0 0 137.11 3.46 0c63.8,-105.65 156.45,-158.18 278.27,-158.18 191.68,0 287.51,118.92 287.51,356.78l0 530.27zm-1011.48 -31.17c-60.33,34.93 -147.51,52.24 -261.25,52.24 -133.07,0 -240.74,-40.12 -323.01,-120.94 -82.27,-80.54 -123.54,-184.46 -123.54,-312.05 0,-147.22 44.16,-262.97 132.2,-347.84 88.33,-84.86 206.39,-127.29 354.19,-127.29 101.9,0 175.8,13.56 221.41,40.4l0 226.89c-55.71,-41.85 -118.07,-62.64 -186.77,-62.64 -76.78,0 -137.4,22.23 -182.44,67.26 -44.74,44.75 -67.25,106.52 -67.25,185.62 0,76.49 21.65,136.82 64.37,180.41 42.72,43.87 101.9,65.53 176.66,65.53 66.68,0 131.63,-20.79 195.43,-62.64l0 215.05zm-815.19 -325.61l-564.92 0c8.95,125.57 88.33,188.5 237.57,188.5 95.26,0 178.98,-22.52 251.14,-67.56l0 192.83c-79.96,42.72 -183.88,64.08 -312.04,64.08 -139.72,0 -248.26,-38.68 -325.62,-116.32 -77.08,-77.36 -115.75,-185.61 -115.75,-324.17 0,-143.76 41.57,-257.78 125.28,-341.78 83.42,-84 185.9,-125.85 307.71,-125.85 126.15,0 224.01,37.52 292.99,112.28 69,75.06 103.64,176.95 103.64,305.41l0 112.58zm-247.68 -164.25c0,-123.84 -50.22,-185.9 -150.68,-185.9 -42.72,0 -79.96,17.61 -111.13,53.11 -31.47,35.51 -50.23,79.97 -57.16,132.79l318.97 0z"/>
   <path class="fil1" d="M5998 301.49l-168.11 0 0 990.4 -273.94 0 0 -990.4 -344.09 0 0 -63.57c2.87,-105.62 62.21,-158.51 178.01,-158.7l786.14 0 0 63.57c-2.87,105.62 -62.21,158.52 -178.01,158.7zm4585.33 990.4l-252.87 0 0 -124.41 -3.47 0c-58.02,96.99 -144.04,145.48 -258.07,145.48 -84,0 -150.1,-23.66 -198.31,-71.29 -48.2,-47.63 -72.16,-111.43 -72.16,-190.81 0,-168 99.58,-264.99 298.48,-290.97l235.26 -31.18c0,-94.68 -51.38,-142.02 -154.15,-142.02 -103.05,0 -201.2,30.6 -294.15,92.08l0 -201.19c37.24,-19.34 88.04,-36.08 152.7,-50.81 64.38,-14.72 123.27,-21.93 176.38,-21.93 246.81,0 370.36,123.25 370.36,369.48l0 517.57zm-251.14 -351.88l0 -58.31 -157.32 20.21c-86.89,11.26 -130.19,50.51 -130.19,117.77 0,30.32 10.39,55.43 31.46,74.77 21.36,19.34 49.94,29.16 86.02,29.16 50.24,0 90.94,-17.33 122.69,-51.97 31.46,-34.64 47.34,-78.51 47.34,-131.63zm-694.52 351.88l-267.31 0 0 -119.21 -3.18 0c-60.91,93.53 -150.39,140.28 -268.16,140.28 -108.26,0 -195.44,-38.1 -261.25,-114.59 -66.1,-76.21 -99.01,-183.02 -99.01,-320.13 0,-143.18 36.37,-257.77 109.12,-344.08 72.74,-86.31 168,-129.32 285.77,-129.32 111.71,0 189.37,39.83 233.53,120.08l3.18 0 0 -356.28c2.87,-105.62 62.2,-158.51 178,-158.7l89.31 0 0 1281.95zm-262.12 -421.16l0 -65.23c0,-56.29 -16.46,-103.05 -49.07,-140.3 -32.62,-37.23 -75.34,-55.71 -127.59,-55.71 -59.18,0 -105.65,23.1 -138.85,69.57 -33.2,46.77 -49.94,110.56 -49.94,191.67 0,76.21 16.17,134.81 48.21,175.8 32.33,41.27 76.79,61.78 133.65,61.78 54.27,0 98.44,-21.65 132.5,-64.95 34.06,-43.59 51.09,-101.04 51.09,-172.63zm-796.71 421.16l-266.44 0 0 -481.19c0,-134.23 -47.92,-201.21 -143.75,-201.21 -46.19,0 -84.3,17.61 -114.03,53.12 -30.02,35.51 -45.03,80.83 -45.03,135.38l0 493.9 -267.01 0 0 -865.98 267.01 0 0 137.11 3.47 0c63.79,-105.65 156.45,-158.18 278.27,-158.18 191.67,0 287.51,118.92 287.51,356.78l0 530.27zm-995.32 -356.78l-564.91 0c8.94,125.57 88.33,188.5 237.56,188.5 95.26,0 178.98,-22.52 251.14,-67.56l0 192.83c-79.96,42.72 -183.88,64.08 -312.04,64.08 -139.72,0 -248.25,-38.68 -325.62,-116.32 -77.07,-77.36 -115.75,-185.61 -115.75,-324.17 0,-143.76 41.57,-257.78 125.28,-341.78 83.42,-84 185.9,-125.85 307.72,-125.85 126.14,0 224,37.52 292.99,112.28 68.99,75.06 103.63,176.95 103.63,305.41l0 112.58zm-247.67 -164.25c0,-123.84 -50.23,-185.9 -150.69,-185.9 -42.72,0 -79.96,17.61 -111.13,53.11 -31.47,35.51 -50.23,79.97 -57.16,132.79l318.98 0zm-887.35 -482.07c-45.04,0 -81.99,-13.28 -110.57,-40.12 -28.86,-26.85 -43.3,-59.47 -43.3,-98.43 0,-40.13 14.44,-72.75 43.3,-98.15 28.58,-25.4 65.53,-38.1 110.57,-38.1 45.89,0 82.84,12.7 111.42,38.1 28.29,25.4 42.72,58.02 42.72,98.15 0,40.41 -14.43,73.9 -42.72,99.87 -28.58,25.69 -65.53,38.68 -111.42,38.68zm131.92 1003.1l-267.02 0 0 -865.98 267.02 0 0 865.98z"/>
  </g>
 </g>
</svg>
