<?xml version="1.0" encoding="UTF-8"?>
<!DOCTYPE svg PUBLIC "-//W3C//DTD SVG 1.1//EN" "http://www.w3.org/Graphics/SVG/1.1/DTD/svg11.dtd">
<!-- Creator: CorelDRAW -->
<svg xmlns="http://www.w3.org/2000/svg" xml:space="preserve" width="6.7732mm" height="8.4666mm" version="1.1" style="shape-rendering:geometricPrecision; text-rendering:geometricPrecision; image-rendering:optimizeQuality; fill-rule:evenodd; clip-rule:evenodd"
viewBox="0 0 677.32 846.66"
 xmlns:xlink="http://www.w3.org/1999/xlink"
 xmlns:xodm="http://www.corel.com/coreldraw/odm/2003">
 <defs>
  <style type="text/css">
   <![CDATA[
    .fil0 {fill:#00CCFF}
    .fil1 {fill:white;fill-rule:nonzero}
   ]]>
  </style>
 </defs>
 <g id="Capa_x0020_1">
  <metadata id="CorelCorpID_0Corel-Layer"/>
  <g id="_2700098971296">
   <path class="fil0" d="M653.55 171.91l-34.86 652.09c-0.59,12.37 -12.6,22.66 -27.77,22.66l-504.46 0c-15.03,0 -27.18,-10.24 -27.77,-22.66l-34.92 -652.09 629.78 0z"/>
   <path class="fil0" d="M27.6 68.63l192.04 0 -0.03 -1.91 0 -16.75c0,-13.7 5.53,-26.17 14.46,-35.24l0.06 -0.07c8.95,-9.05 21.25,-14.67 34.75,-14.67l139.56 0c13.57,0 25.9,5.63 34.81,14.67 8.91,9.04 14.46,21.55 14.46,35.31l0 16.75 -0.03 1.91 192.04 0c15.19,0 27.6,12.59 27.6,28 0,13.66 0,27.32 0,40.98l-677.32 0c0,-13.66 0,-27.32 0,-40.98 0,-15.41 12.41,-28 27.6,-28zm223.15 0l175.81 0c0.06,-0.63 0.09,-1.26 0.09,-1.91l0 -16.75c0,-5.06 -2.06,-9.69 -5.36,-13.03 -3.3,-3.35 -7.86,-5.44 -12.85,-5.44l-139.56 0c-5.03,0 -9.59,2.05 -12.85,5.37l-0.07 0.07c-3.27,3.3 -5.29,7.93 -5.29,13.03l0 16.75c0,0.65 0.02,1.28 0.08,1.91z"/>
   <path class="fil1" d="M509.99 621.21c16.4,16.4 16.4,43.01 0,59.41 -16.4,16.4 -43,16.4 -59.4,0l-111.93 -111.93 -111.93 111.93c-16.4,16.4 -43,16.4 -59.4,0 -16.4,-16.4 -16.4,-43.01 0,-59.41l111.93 -111.93 -111.93 -111.92c-16.4,-16.4 -16.4,-43.01 0,-59.41 16.4,-16.4 43,-16.4 59.4,0l111.93 111.93 111.93 -111.93c16.4,-16.4 43,-16.4 59.4,0 16.4,16.4 16.4,43.01 0,59.41l-111.93 111.92 111.93 111.93z"/>
  </g>
 </g>
</svg>
