<?xml version="1.0" encoding="UTF-8"?>
<!DOCTYPE svg PUBLIC "-//W3C//DTD SVG 1.1//EN" "http://www.w3.org/Graphics/SVG/1.1/DTD/svg11.dtd">
<!-- Creator: CorelDRAW -->
<svg xmlns="http://www.w3.org/2000/svg" xml:space="preserve" width="7.6198mm" height="7.6198mm" version="1.1" style="shape-rendering:geometricPrecision; text-rendering:geometricPrecision; image-rendering:optimizeQuality; fill-rule:evenodd; clip-rule:evenodd"
viewBox="0 0 761.98 761.98"
 xmlns:xlink="http://www.w3.org/1999/xlink"
 xmlns:xodm="http://www.corel.com/coreldraw/odm/2003">
 <defs>
  <style type="text/css">
   <![CDATA[
    .fil0 {fill:#00CCFF}
    .fil1 {fill:white}
   ]]>
  </style>
 </defs>
 <g id="Capa_x0020_1">
  <metadata id="CorelCorpID_0Corel-Layer"/>
  <g id="_2350858381744">
   <polygon class="fil0" points="200.76,-0.01 761.99,561.22 761.99,761.99 -0.01,-0.01 "/>
   <path class="fil1" d="M228.12 145.88l11.16 9.14c-2.78,4 -4.05,7.71 -3.78,11.17 0.26,3.45 1.98,6.75 5.14,9.91 3.33,3.34 6.56,5.14 9.67,5.42 3.1,0.28 5.61,-0.53 7.51,-2.42 1.22,-1.23 1.89,-2.62 2.04,-4.19 0.15,-1.56 -0.35,-3.56 -1.51,-5.95 -0.77,-1.65 -2.79,-5.15 -6.03,-10.55 -4.16,-6.95 -6.36,-12.54 -6.58,-16.82 -0.3,-5.99 1.59,-11.03 5.68,-15.12 2.63,-2.63 5.85,-4.36 9.61,-5.17 3.78,-0.8 7.65,-0.41 11.65,1.18 3.99,1.6 7.96,4.36 11.91,8.32 6.44,6.44 9.87,12.72 10.26,18.85 0.4,6.13 -1.71,11.65 -6.34,16.59l-10.79 -10.07c2.22,-3.11 3.18,-5.96 2.89,-8.58 -0.29,-2.62 -1.88,-5.38 -4.78,-8.29 -3,-2.99 -5.99,-4.72 -8.92,-5.16 -1.89,-0.29 -3.51,0.22 -4.86,1.56 -1.22,1.23 -1.75,2.79 -1.58,4.68 0.19,2.42 2.22,6.76 6.07,13.01 3.86,6.23 6.34,11.21 7.48,14.9 1.14,3.7 1.3,7.34 0.44,10.93 -0.85,3.58 -2.9,7 -6.15,10.25 -2.95,2.95 -6.53,4.91 -10.76,5.85 -4.22,0.93 -8.46,0.53 -12.7,-1.21 -4.26,-1.74 -8.63,-4.86 -13.11,-9.34 -6.51,-6.51 -10.01,-13.02 -10.49,-19.52 -0.5,-6.49 1.81,-12.94 6.87,-19.37zm33.69 67.08l51.53 -51.54 10.44 10.44 -51.54 51.54 -10.43 -10.44zm20.36 20.36l51.54 -51.54 10.1 10.1 -13.33 55.75 34.54 -34.54 9.65 9.65 -51.54 51.53 -10.43 -10.42 12.99 -54.77 -33.88 33.89 -9.64 -9.65zm85.94 52.54l11.16 9.15c-2.79,4 -4.05,7.71 -3.78,11.16 0.26,3.46 1.97,6.76 5.13,9.91 3.33,3.34 6.57,5.15 9.67,5.42 3.11,0.28 5.61,-0.53 7.51,-2.42 1.22,-1.22 1.9,-2.61 2.05,-4.19 0.14,-1.55 -0.35,-3.55 -1.51,-5.94 -0.78,-1.65 -2.79,-5.15 -6.03,-10.55 -4.17,-6.95 -6.37,-12.55 -6.58,-16.82 -0.31,-6 1.59,-11.04 5.67,-15.13 2.64,-2.62 5.85,-4.35 9.61,-5.17 3.79,-0.8 7.66,-0.4 11.66,1.19 3.99,1.59 7.95,4.35 11.91,8.31 6.44,6.44 9.87,12.73 10.26,18.86 0.39,6.12 -1.72,11.64 -6.34,16.59l-10.79 -10.07c2.21,-3.11 3.18,-5.97 2.88,-8.58 -0.29,-2.62 -1.88,-5.39 -4.78,-8.29 -3,-3 -5.98,-4.73 -8.92,-5.17 -1.89,-0.29 -3.51,0.23 -4.85,1.57 -1.23,1.23 -1.75,2.79 -1.58,4.68 0.18,2.42 2.21,6.76 6.06,13 3.87,6.24 6.35,11.22 7.49,14.9 1.14,3.71 1.3,7.35 0.44,10.93 -0.85,3.59 -2.9,7.01 -6.15,10.26 -2.95,2.95 -6.54,4.91 -10.76,5.84 -4.22,0.94 -8.46,0.54 -12.7,-1.21 -4.27,-1.74 -8.63,-4.86 -13.11,-9.33 -6.51,-6.52 -10.01,-13.02 -10.49,-19.52 -0.5,-6.49 1.81,-12.95 6.87,-19.38zm45.63 79.03l42.83 -42.82 -15.26 -15.26 8.71 -8.71 40.89 40.88 -8.71 8.71 -15.19 -15.19 -42.83 42.83 -10.44 -10.44zm54.39 3.48c5.25,-5.26 10.46,-8.89 15.61,-10.89 3.78,-1.46 7.75,-2.22 11.87,-2.28 4.11,-0.06 7.88,0.61 11.31,2 4.57,1.87 8.96,4.89 13.16,9.09 7.61,7.61 11.31,16.04 11.17,25.33 -0.16,9.28 -4.45,18.12 -12.86,26.53 -8.34,8.34 -17.13,12.59 -26.36,12.77 -9.23,0.2 -17.64,-3.51 -25.22,-11.08 -7.66,-7.66 -11.43,-16.11 -11.26,-25.32 0.16,-9.2 4.35,-17.93 12.58,-26.15zm11.06 10.37c-5.84,5.84 -8.91,11.63 -9.23,17.35 -0.31,5.71 1.61,10.65 5.76,14.81 4.16,4.15 9.07,6.06 14.73,5.74 5.66,-0.32 11.48,-3.48 17.47,-9.47 5.92,-5.91 9.03,-11.62 9.33,-17.14 0.33,-5.5 -1.67,-10.39 -5.97,-14.69 -4.3,-4.3 -9.24,-6.29 -14.81,-5.98 -5.57,0.32 -11.34,3.44 -17.28,9.38zm73.59 87.19l6.99 13.17c-7.22,4.13 -14.01,5.76 -20.37,4.92 -6.35,-0.85 -12.29,-4.03 -17.82,-9.56 -6.85,-6.85 -10.14,-14.81 -9.87,-23.91 0.28,-9.08 4.46,-17.68 12.59,-25.81 8.57,-8.58 17.46,-13.02 26.64,-13.35 9.18,-0.32 17.38,3.13 24.6,10.36 6.31,6.31 9.57,13.3 9.77,20.96 0.14,4.56 -1.27,9.48 -4.23,14.8l-12.75 -7.84c2.05,-3.27 2.9,-6.66 2.51,-10.14 -0.39,-3.49 -1.98,-6.62 -4.74,-9.37 -3.83,-3.83 -8.3,-5.57 -13.42,-5.2 -5.12,0.35 -10.75,3.6 -16.89,9.75 -6.5,6.49 -9.97,12.32 -10.39,17.41 -0.42,5.13 1.24,9.55 5,13.31 2.77,2.77 6.04,4.28 9.79,4.51 3.76,0.23 7.96,-1.09 12.59,-4.01zm0.17 38.16l51.54 -51.53 10.43 10.43 -22.83 22.84 43.86 -1.81 13.98 13.99 -39.51 0.63 -11.02 51.92 -13.46 -13.46 10.02 -38.38 -16.99 0.23 -15.59 15.58 -10.43 -10.44z"/>
  </g>
 </g>
</svg>
