<?xml version="1.0" encoding="UTF-8"?>
<!DOCTYPE svg PUBLIC "-//W3C//DTD SVG 1.1//EN" "http://www.w3.org/Graphics/SVG/1.1/DTD/svg11.dtd">
<!-- Creator: CorelDRAW -->
<svg xmlns="http://www.w3.org/2000/svg" xml:space="preserve" width="1.1852mm" height="5.2492mm" version="1.1" style="shape-rendering:geometricPrecision; text-rendering:geometricPrecision; image-rendering:optimizeQuality; fill-rule:evenodd; clip-rule:evenodd"
viewBox="0 0 118.52 524.92"
 xmlns:xlink="http://www.w3.org/1999/xlink"
 xmlns:xodm="http://www.corel.com/coreldraw/odm/2003">
 <defs>
  <style type="text/css">
   <![CDATA[
    .fil0 {fill:#CCFF66}
   ]]>
  </style>
 </defs>
 <g id="Capa_x0020_1">
  <metadata id="CorelCorpID_0Corel-Layer"/>
  <path class="fil0" d="M59.28 439.73c21.18,0 38.36,17.18 38.36,38.37 0,21.18 -17.18,38.36 -38.36,38.36 -21.19,0 -38.36,-17.18 -38.36,-38.36 0,-21.19 17.17,-38.37 38.36,-38.37zm52.27 -375.23l-13.91 311.06c0,21.19 -17.18,38.37 -38.36,38.37 -21.19,0 -38.36,-17.18 -38.36,-38.37l-13.84 -309.08c-0.2,-1.82 -0.29,-3.68 -0.29,-5.53 0,-28.99 23.5,-52.49 52.49,-52.49 28.98,0 52.4,23.5 52.44,52.49l-0.04 1.24c-0.05,0.78 -0.09,1.52 -0.13,2.31z"/>
 </g>
</svg>
