<?xml version="1.0" encoding="UTF-8"?>
<!DOCTYPE svg PUBLIC "-//W3C//DTD SVG 1.1//EN" "http://www.w3.org/Graphics/SVG/1.1/DTD/svg11.dtd">
<!-- Creator: CorelDRAW -->
<svg xmlns="http://www.w3.org/2000/svg" xml:space="preserve" width="2.7092mm" height="4.7412mm" version="1.1" style="shape-rendering:geometricPrecision; text-rendering:geometricPrecision; image-rendering:optimizeQuality; fill-rule:evenodd; clip-rule:evenodd"
viewBox="0 0 270.92 474.12"
 xmlns:xlink="http://www.w3.org/1999/xlink"
 xmlns:xodm="http://www.corel.com/coreldraw/odm/2003">
 <defs>
  <style type="text/css">
   <![CDATA[
    .fil0 {fill:#FF6633;fill-rule:nonzero}
   ]]>
  </style>
 </defs>
 <g id="Capa_x0020_1">
  <metadata id="CorelCorpID_0Corel-Layer"/>
  <path class="fil0" d="M2.62 142.09c0,-21.19 5.45,-42.73 16.24,-64.61 10.8,-21.77 26.59,-39.88 47.27,-54.2 20.79,-14.32 44.92,-21.42 72.59,-21.42 25.68,0 48.36,5.95 68.05,17.99 19.6,11.91 34.75,28.18 45.46,48.8 10.7,20.51 16.06,42.97 16.06,67.02 0,19.03 -3.09,35.75 -9.16,50.07 -6.09,14.33 -13.35,26.7 -21.78,37.01 -8.35,10.42 -23.41,27.95 -45.18,52.59 -6.09,6.87 -10.9,12.94 -14.52,18.21 -3.64,5.28 -6.36,10.08 -8.08,14.43 -1.81,4.36 -3.17,8.72 -4.17,13.07 -0.91,4.35 -2.45,12.03 -4.36,23.02 -3.36,23.26 -13.88,34.83 -31.66,34.83 -9.17,0 -16.97,-3.77 -23.23,-11.34 -6.36,-7.67 -9.44,-18.9 -9.44,-33.91 0,-18.79 2.27,-35.06 6.9,-48.81 4.63,-13.74 10.7,-25.77 18.33,-36.2 7.62,-10.42 17.96,-22.8 30.84,-37.12 11.35,-12.49 19.6,-21.99 24.59,-28.3 5.09,-6.42 9.35,-13.52 12.8,-21.31 3.44,-7.79 5.17,-16.38 5.17,-25.55 0,-17.87 -5.26,-32.99 -15.79,-45.25 -10.62,-12.26 -24.13,-18.45 -40.83,-18.45 -19.51,0 -33.84,6.19 -43.1,18.68 -9.16,12.37 -16.96,30.7 -23.31,54.87 -6.09,25.21 -17.52,37.81 -34.3,37.81 -9.99,0 -18.33,-4.35 -25.13,-13.29 -6.81,-8.82 -10.26,-18.33 -10.26,-28.64zm130.62 253.44c21.18,0 38.36,17.18 38.36,38.37 0,21.18 -17.18,38.36 -38.36,38.36 -21.19,0 -38.36,-17.18 -38.36,-38.36 0,-21.19 17.17,-38.37 38.36,-38.37z"/>
 </g>
</svg>
